<svg width="144" height="137" viewBox="0 0 144 137" fill="none" xmlns="http://www.w3.org/2000/svg">
<g filter="url(#filter0_d_286_164)">
<path d="M65.5 0L80.8792 47.3323H130.647L90.3841 76.5853L105.763 123.918L65.5 94.6647L25.2367 123.918L40.6159 76.5853L0.352631 47.3323H50.1208L65.5 0Z" fill="#C03737"/>
<path d="M65.5 11.0835L77.6218 48.3907L78.3908 50.7573H80.8792H120.106L88.3709 73.8144L86.3577 75.2771L87.1267 77.6437L99.2486 114.951L67.5132 91.8938L65.5 90.4311L63.4868 91.8938L31.7514 114.951L43.8733 77.6437L44.6422 75.2771L42.6291 73.8144L10.8937 50.7573H50.1208H52.6092L53.3782 48.3907L65.5 11.0835Z" stroke="black" stroke-width="6.85"/>
<path d="M65.5 11.0835L77.6218 48.3907L78.3908 50.7573H80.8792H120.106L88.3709 73.8144L86.3577 75.2771L87.1267 77.6437L99.2486 114.951L67.5132 91.8938L65.5 90.4311L63.4868 91.8938L31.7514 114.951L43.8733 77.6437L44.6422 75.2771L42.6291 73.8144L10.8937 50.7573H50.1208H52.6092L53.3782 48.3907L65.5 11.0835Z" stroke="#5226CE" stroke-opacity="0.2" stroke-width="6.85"/>
</g>
<defs>
<filter id="filter0_d_286_164" x="0.352539" y="0" width="143.295" height="136.918" filterUnits="userSpaceOnUse" color-interpolation-filters="sRGB">
<feFlood flood-opacity="0" result="BackgroundImageFix"/>
<feColorMatrix in="SourceAlpha" type="matrix" values="0 0 0 0 0 0 0 0 0 0 0 0 0 0 0 0 0 0 127 0" result="hardAlpha"/>
<feOffset dx="7" dy="7"/>
<feGaussianBlur stdDeviation="3"/>
<feComposite in2="hardAlpha" operator="out"/>
<feColorMatrix type="matrix" values="0 0 0 0 0.754167 0 0 0 0 0.216823 0 0 0 0 0.216823 0 0 0 0.67 0"/>
<feBlend mode="normal" in2="BackgroundImageFix" result="effect1_dropShadow_286_164"/>
<feBlend mode="normal" in="SourceGraphic" in2="effect1_dropShadow_286_164" result="shape"/>
</filter>
</defs>
</svg>
